<svg xmlns="http://www.w3.org/2000/svg" width="30" height="30" fill="none" viewBox="0 0 30 30">
  <path stroke="#FDE201" stroke-linecap="round" stroke-linejoin="round" stroke-width="2" d="M25.745 12.5c0 8.75-11.034 16.25-11.034 16.25S3.678 21.25 3.678 12.5A11.36 11.36 0 0 1 6.91 4.545a10.927 10.927 0 0 1 7.8-3.295c2.927 0 5.733 1.185 7.803 3.295a11.363 11.363 0 0 1 3.231 7.955Z"/>
  <path stroke="#FDE201" stroke-linecap="round" stroke-linejoin="round" stroke-width="2" d="M14.711 16.25c2.032 0 3.678-1.679 3.678-3.75 0-2.071-1.646-3.75-3.678-3.75-2.03 0-3.677 1.679-3.677 3.75 0 2.071 1.646 3.75 3.677 3.75Z"/>
</svg>
